REM DIRINDEX 1\2,1\3\4,1\3\5,1\3\6,1\7,1\8,1\9,1\10,1\11,1\12\13,1\12\14,1\12\15,1\12\16,1\17
REM DIRNAME cjc025,folder01,folder02,folder03,folder04,folder05,folder06,folder07,folder08,folder09,folder10,folder11,folder12,folder13,folder14,folder15,folder16
TITLE ""
FILE "DB3000_5th_MK_04.mp3" MP3
  TRACK 01 AUDIO
    TITLE "16:cjc025_7487"
    INDEX 01 00:00:00
  TRACK 02 AUDIO
    TITLE "16:cjc025_7488"
    INDEX 01 00:01:11
  TRACK 03 AUDIO
    TITLE "16:cjc025_7489"
    INDEX 01 00:03:06
  TRACK 04 AUDIO
    TITLE "16:cjc025_7490"
    INDEX 01 00:03:72
  TRACK 05 AUDIO
    TITLE "16:cjc025_7491"
    INDEX 01 00:05:65
  TRACK 06 AUDIO
    TITLE "16:cjc025_7492"
    INDEX 01 00:06:45
  TRACK 07 AUDIO
    TITLE "16:cjc025_7493"
    INDEX 01 00:08:28
  TRACK 08 AUDIO
    TITLE "16:cjc025_7494"
    INDEX 01 00:09:28
  TRACK 09 AUDIO
    TITLE "16:cjc025_7495"
    INDEX 01 00:11:25
  TRACK 10 AUDIO
    TITLE "16:cjc025_7496"
    INDEX 01 00:12:11
  TRACK 11 AUDIO
    TITLE "16:cjc025_7497"
    INDEX 01 00:13:69
  TRACK 12 AUDIO
    TITLE "16:cjc025_7498"
    INDEX 01 00:14:53
  TRACK 13 AUDIO
    TITLE "16:cjc025_7499"
    INDEX 01 00:16:49
  TRACK 14 AUDIO
    TITLE "16:cjc025_7500"
    INDEX 01 00:17:33
  TRACK 15 AUDIO
    TITLE "16:cjc025_7501"
    INDEX 01 00:19:18
  TRACK 16 AUDIO
    TITLE "16:cjc025_7502"
    INDEX 01 00:20:14
  TRACK 17 AUDIO
    TITLE "16:cjc025_7503"
    INDEX 01 00:22:01
  TRACK 18 AUDIO
    TITLE "16:cjc025_7504"
    INDEX 01 00:22:64
  TRACK 19 AUDIO
    TITLE "16:cjc025_7505"
    INDEX 01 00:24:67
  TRACK 20 AUDIO
    TITLE "16:cjc025_7506"
    INDEX 01 00:25:66
  TRACK 21 AUDIO
    TITLE "16:cjc025_7507"
    INDEX 01 00:27:51
  TRACK 22 AUDIO
    TITLE "16:cjc025_7508"
    INDEX 01 00:28:41
  TRACK 23 AUDIO
    TITLE "16:cjc025_7509"
    INDEX 01 00:30:22
  TRACK 24 AUDIO
    TITLE "16:cjc025_7510"
    INDEX 01 00:31:26
  TRACK 25 AUDIO
    TITLE "16:cjc025_7511"
    INDEX 01 00:32:60
  TRACK 26 AUDIO
    TITLE "16:cjc025_7512"
    INDEX 01 00:34:08
  TRACK 27 AUDIO
    TITLE "16:cjc025_7513"
    INDEX 01 00:36:29
  TRACK 28 AUDIO
    TITLE "16:cjc025_7514"
    INDEX 01 00:37:16
  TRACK 29 AUDIO
    TITLE "16:cjc025_7515"
    INDEX 01 00:39:21
  TRACK 30 AUDIO
    TITLE "16:cjc025_7516"
    INDEX 01 00:40:09
  TRACK 31 AUDIO
    TITLE "16:cjc025_7517"
    INDEX 01 00:41:51
  TRACK 32 AUDIO
    TITLE "16:cjc025_7518"
    INDEX 01 00:42:53
  TRACK 33 AUDIO
    TITLE "16:cjc025_7519"
    INDEX 01 00:44:42
  TRACK 34 AUDIO
    TITLE "16:cjc025_7520"
    INDEX 01 00:45:37
  TRACK 35 AUDIO
    TITLE "16:cjc025_7521"
    INDEX 01 00:47:05
  TRACK 36 AUDIO
    TITLE "16:cjc025_7522"
    INDEX 01 00:47:70
  TRACK 37 AUDIO
    TITLE "16:cjc025_7523"
    INDEX 01 00:49:59
  TRACK 38 AUDIO
    TITLE "16:cjc025_7524"
    INDEX 01 00:50:54
  TRACK 39 AUDIO
    TITLE "16:cjc025_7525"
    INDEX 01 00:52:43
  TRACK 40 AUDIO
    TITLE "16:cjc025_7526"
    INDEX 01 00:53:39
  TRACK 41 AUDIO
    TITLE "16:cjc025_7527"
    INDEX 01 00:55:57
  TRACK 42 AUDIO
    TITLE "16:cjc025_7528"
    INDEX 01 00:56:53
  TRACK 43 AUDIO
    TITLE "16:cjc025_7529"
    INDEX 01 00:58:58
  TRACK 44 AUDIO
    TITLE "16:cjc025_7530"
    INDEX 01 00:59:49
  TRACK 45 AUDIO
    TITLE "16:cjc025_7531"
    INDEX 01 01:01:29
  TRACK 46 AUDIO
    TITLE "16:cjc025_7532"
    INDEX 01 01:02:26
  TRACK 47 AUDIO
    TITLE "16:cjc025_7533"
    INDEX 01 01:04:33
  TRACK 48 AUDIO
    TITLE "16:cjc025_7534"
    INDEX 01 01:05:24
  TRACK 49 AUDIO
    TITLE "16:cjc025_7535"
    INDEX 01 01:07:25
  TRACK 50 AUDIO
    TITLE "16:cjc025_7536"
    INDEX 01 01:08:21
  TRACK 51 AUDIO
    TITLE "16:cjc025_7537"
    INDEX 01 01:10:18
  TRACK 52 AUDIO
    TITLE "16:cjc025_7538"
    INDEX 01 01:11:21
  TRACK 53 AUDIO
    TITLE "16:cjc025_7539"
    INDEX 01 01:13:22
  TRACK 54 AUDIO
    TITLE "16:cjc025_7540"
    INDEX 01 01:14:25
  TRACK 55 AUDIO
    TITLE "16:cjc025_7541"
    INDEX 01 01:17:12
  TRACK 56 AUDIO
    TITLE "16:cjc025_7542"
    INDEX 01 01:18:00
  TRACK 57 AUDIO
    TITLE "16:cjc025_7543"
    INDEX 01 01:20:55
  TRACK 58 AUDIO
    TITLE "16:cjc025_7544"
    INDEX 01 01:21:59
  TRACK 59 AUDIO
    TITLE "16:cjc025_7545"
    INDEX 01 01:23:54
  TRACK 60 AUDIO
    TITLE "16:cjc025_7546"
    INDEX 01 01:24:37
  TRACK 61 AUDIO
    TITLE "16:cjc025_7547"
    INDEX 01 01:26:27
  TRACK 62 AUDIO
    TITLE "16:cjc025_7548"
    INDEX 01 01:27:28
  TRACK 63 AUDIO
    TITLE "16:cjc025_7549"
    INDEX 01 01:29:31
  TRACK 64 AUDIO
    TITLE "16:cjc025_7550"
    INDEX 01 01:30:30
  TRACK 65 AUDIO
    TITLE "16:cjc025_7551"
    INDEX 01 01:32:33
  TRACK 66 AUDIO
    TITLE "16:cjc025_7552"
    INDEX 01 01:33:33
  TRACK 67 AUDIO
    TITLE "16:cjc025_7553"
    INDEX 01 01:35:24
  TRACK 68 AUDIO
    TITLE "16:cjc025_7554"
    INDEX 01 01:36:33
  TRACK 69 AUDIO
    TITLE "16:cjc025_7555"
    INDEX 01 01:38:12
  TRACK 70 AUDIO
    TITLE "16:cjc025_7556"
    INDEX 01 01:39:17
  TRACK 71 AUDIO
    TITLE "16:cjc025_7557"
    INDEX 01 01:41:03
  TRACK 72 AUDIO
    TITLE "16:cjc025_7558"
    INDEX 01 01:42:10
  TRACK 73 AUDIO
    TITLE "16:cjc025_7559"
    INDEX 01 01:43:60
  TRACK 74 AUDIO
    TITLE "16:cjc025_7560"
    INDEX 01 01:44:58
  TRACK 75 AUDIO
    TITLE "16:cjc025_7561"
    INDEX 01 01:46:29
  TRACK 76 AUDIO
    TITLE "16:cjc025_7562"
    INDEX 01 01:47:37
  TRACK 77 AUDIO
    TITLE "16:cjc025_7563"
    INDEX 01 01:49:43
  TRACK 78 AUDIO
    TITLE "16:cjc025_7564"
    INDEX 01 01:50:35
  TRACK 79 AUDIO
    TITLE "16:cjc025_7565"
    INDEX 01 01:52:30
  TRACK 80 AUDIO
    TITLE "16:cjc025_7566"
    INDEX 01 01:53:27
  TRACK 81 AUDIO
    TITLE "16:cjc025_7567"
    INDEX 01 01:55:07
  TRACK 82 AUDIO
    TITLE "16:cjc025_7568"
    INDEX 01 01:55:73
  TRACK 83 AUDIO
    TITLE "16:cjc025_7569"
    INDEX 01 01:58:01
  TRACK 84 AUDIO
    TITLE "16:cjc025_7570"
    INDEX 01 01:59:14
  TRACK 85 AUDIO
    TITLE "16:cjc025_7571"
    INDEX 01 02:01:13
  TRACK 86 AUDIO
    TITLE "16:cjc025_7572"
    INDEX 01 02:02:60
  TRACK 87 AUDIO
    TITLE "16:cjc025_7573"
    INDEX 01 02:05:19
  TRACK 88 AUDIO
    TITLE "16:cjc025_7574"
    INDEX 01 02:06:28
  TRACK 89 AUDIO
    TITLE "16:cjc025_7575"
    INDEX 01 02:09:05
  TRACK 90 AUDIO
    TITLE "16:cjc025_7576"
    INDEX 01 02:10:16
  TRACK 91 AUDIO
    TITLE "16:cjc025_7577"
    INDEX 01 02:12:52
  TRACK 92 AUDIO
    TITLE "16:cjc025_7578"
    INDEX 01 02:13:44
  TRACK 93 AUDIO
    TITLE "16:cjc025_7579"
    INDEX 01 02:15:56
  TRACK 94 AUDIO
    TITLE "16:cjc025_7580"
    INDEX 01 02:16:66
  TRACK 95 AUDIO
    TITLE "16:cjc025_7581"
    INDEX 01 02:18:66
  TRACK 96 AUDIO
    TITLE "16:cjc025_7582"
    INDEX 01 02:20:07
  TRACK 97 AUDIO
    TITLE "16:cjc025_7583"
    INDEX 01 02:22:25
  TRACK 98 AUDIO
    TITLE "16:cjc025_7584"
    INDEX 01 02:23:34
  TRACK 99 AUDIO
    TITLE "16:cjc025_7585"
    INDEX 01 02:25:16
  TRACK 100 AUDIO
    TITLE "16:cjc025_7586"
    INDEX 01 02:26:17
  TRACK 101 AUDIO
    TITLE "16:cjc025_7587"
    INDEX 01 02:27:73
  TRACK 102 AUDIO
    TITLE "16:cjc025_7588"
    INDEX 01 02:28:61
  TRACK 103 AUDIO
    TITLE "16:cjc025_7589"
    INDEX 01 02:30:54
  TRACK 104 AUDIO
    TITLE "16:cjc025_7590"
    INDEX 01 02:31:46
  TRACK 105 AUDIO
    TITLE "16:cjc025_7591"
    INDEX 01 02:33:15
  TRACK 106 AUDIO
    TITLE "16:cjc025_7592"
    INDEX 01 02:34:07
  TRACK 107 AUDIO
    TITLE "16:cjc025_7593"
    INDEX 01 02:36:29
  TRACK 108 AUDIO
    TITLE "16:cjc025_7594"
    INDEX 01 02:37:23
  TRACK 109 AUDIO
    TITLE "16:cjc025_7595"
    INDEX 01 02:39:10
  TRACK 110 AUDIO
    TITLE "16:cjc025_7596"
    INDEX 01 02:40:11
  TRACK 111 AUDIO
    TITLE "16:cjc025_7597"
    INDEX 01 02:42:32
  TRACK 112 AUDIO
    TITLE "16:cjc025_7598"
    INDEX 01 02:43:25
  TRACK 113 AUDIO
    TITLE "16:cjc025_7599"
    INDEX 01 02:45:07
  TRACK 114 AUDIO
    TITLE "16:cjc025_7600"
    INDEX 01 02:46:04
  TRACK 115 AUDIO
    TITLE "16:cjc025_7601"
    INDEX 01 02:47:58
  TRACK 116 AUDIO
    TITLE "16:cjc025_7602"
    INDEX 01 02:48:54
  TRACK 117 AUDIO
    TITLE "16:cjc025_7603"
    INDEX 01 02:50:59
  TRACK 118 AUDIO
    TITLE "16:cjc025_7604"
    INDEX 01 02:51:62
  TRACK 119 AUDIO
    TITLE "16:cjc025_7605"
    INDEX 01 02:54:04
  TRACK 120 AUDIO
    TITLE "16:cjc025_7606"
    INDEX 01 02:55:05
  TRACK 121 AUDIO
    TITLE "16:cjc025_7607"
    INDEX 01 02:57:14
  TRACK 122 AUDIO
    TITLE "16:cjc025_7608"
    INDEX 01 02:58:13
  TRACK 123 AUDIO
    TITLE "16:cjc025_7609"
    INDEX 01 02:59:71
  TRACK 124 AUDIO
    TITLE "16:cjc025_7610"
    INDEX 01 03:00:73
  TRACK 125 AUDIO
    TITLE "16:cjc025_7611"
    INDEX 01 03:02:42
  TRACK 126 AUDIO
    TITLE "16:cjc025_7612"
    INDEX 01 03:03:50
  TRACK 127 AUDIO
    TITLE "16:cjc025_7613"
    INDEX 01 03:05:25
  TRACK 128 AUDIO
    TITLE "16:cjc025_7614"
    INDEX 01 03:06:62
  TRACK 129 AUDIO
    TITLE "16:cjc025_7615"
    INDEX 01 03:10:14
  TRACK 130 AUDIO
    TITLE "16:cjc025_7616"
    INDEX 01 03:11:20
  TRACK 131 AUDIO
    TITLE "16:cjc025_7617"
    INDEX 01 03:13:62
  TRACK 132 AUDIO
    TITLE "16:cjc025_7618"
    INDEX 01 03:14:67
  TRACK 133 AUDIO
    TITLE "16:cjc025_7619"
    INDEX 01 03:16:68
  TRACK 134 AUDIO
    TITLE "16:cjc025_7620"
    INDEX 01 03:18:02
  TRACK 135 AUDIO
    TITLE "16:cjc025_7621"
    INDEX 01 03:21:00
  TRACK 136 AUDIO
    TITLE "16:cjc025_7622"
    INDEX 01 03:22:10
  TRACK 137 AUDIO
    TITLE "16:cjc025_7623"
    INDEX 01 03:24:20
  TRACK 138 AUDIO
    TITLE "16:cjc025_7624"
    INDEX 01 03:25:12
  TRACK 139 AUDIO
    TITLE "16:cjc025_7625"
    INDEX 01 03:27:07
  TRACK 140 AUDIO
    TITLE "16:cjc025_7626"
    INDEX 01 03:27:68
  TRACK 141 AUDIO
    TITLE "16:cjc025_7627"
    INDEX 01 03:29:65
  TRACK 142 AUDIO
    TITLE "16:cjc025_7628"
    INDEX 01 03:30:70
  TRACK 143 AUDIO
    TITLE "16:cjc025_7629"
    INDEX 01 03:33:13
  TRACK 144 AUDIO
    TITLE "16:cjc025_7630"
    INDEX 01 03:34:13
  TRACK 145 AUDIO
    TITLE "16:cjc025_7631"
    INDEX 01 03:35:53
  TRACK 146 AUDIO
    TITLE "16:cjc025_7632"
    INDEX 01 03:36:39
  TRACK 147 AUDIO
    TITLE "16:cjc025_7633"
    INDEX 01 03:38:13
  TRACK 148 AUDIO
    TITLE "16:cjc025_7634"
    INDEX 01 03:39:00
  TRACK 149 AUDIO
    TITLE "16:cjc025_7635"
    INDEX 01 03:40:55
  TRACK 150 AUDIO
    TITLE "16:cjc025_7636"
    INDEX 01 03:41:44
  TRACK 151 AUDIO
    TITLE "16:cjc025_7637"
    INDEX 01 03:43:20
  TRACK 152 AUDIO
    TITLE "16:cjc025_7638"
    INDEX 01 03:44:21
  TRACK 153 AUDIO
    TITLE "16:cjc025_7639"
    INDEX 01 03:46:14
  TRACK 154 AUDIO
    TITLE "16:cjc025_7640"
    INDEX 01 03:47:17
  TRACK 155 AUDIO
    TITLE "16:cjc025_7641"
    INDEX 01 03:48:64
  TRACK 156 AUDIO
    TITLE "16:cjc025_7642"
    INDEX 01 03:49:56
  TRACK 157 AUDIO
    TITLE "16:cjc025_7643"
    INDEX 01 03:51:47
  TRACK 158 AUDIO
    TITLE "16:cjc025_7644"
    INDEX 01 03:52:66
  TRACK 159 AUDIO
    TITLE "16:cjc025_7645"
    INDEX 01 03:54:59
  TRACK 160 AUDIO
    TITLE "16:cjc025_7646"
    INDEX 01 03:55:66
  TRACK 161 AUDIO
    TITLE "16:cjc025_7647"
    INDEX 01 03:58:43
  TRACK 162 AUDIO
    TITLE "16:cjc025_7648"
    INDEX 01 03:59:54
  TRACK 163 AUDIO
    TITLE "16:cjc025_7649"
    INDEX 01 04:01:41
  TRACK 164 AUDIO
    TITLE "16:cjc025_7650"
    INDEX 01 04:02:44
  TRACK 165 AUDIO
    TITLE "16:cjc025_7651"
    INDEX 01 04:04:34
  TRACK 166 AUDIO
    TITLE "16:cjc025_7652"
    INDEX 01 04:05:43
  TRACK 167 AUDIO
    TITLE "16:cjc025_7653"
    INDEX 01 04:07:34
  TRACK 168 AUDIO
    TITLE "16:cjc025_7654"
    INDEX 01 04:08:39
  TRACK 169 AUDIO
    TITLE "16:cjc025_7655"
    INDEX 01 04:10:28
  TRACK 170 AUDIO
    TITLE "16:cjc025_7656"
    INDEX 01 04:11:38
  TRACK 171 AUDIO
    TITLE "16:cjc025_7657"
    INDEX 01 04:13:21
  TRACK 172 AUDIO
    TITLE "16:cjc025_7658"
    INDEX 01 04:14:40
  TRACK 173 AUDIO
    TITLE "16:cjc025_7659"
    INDEX 01 04:17:03
  TRACK 174 AUDIO
    TITLE "16:cjc025_7660"
    INDEX 01 04:18:28
  TRACK 175 AUDIO
    TITLE "16:cjc025_7661"
    INDEX 01 04:21:14
  TRACK 176 AUDIO
    TITLE "16:cjc025_7662"
    INDEX 01 04:22:45
  TRACK 177 AUDIO
    TITLE "16:cjc025_7663"
    INDEX 01 04:25:32
  TRACK 178 AUDIO
    TITLE "16:cjc025_7664"
    INDEX 01 04:26:43
  TRACK 179 AUDIO
    TITLE "16:cjc025_7665"
    INDEX 01 04:29:18
  TRACK 180 AUDIO
    TITLE "16:cjc025_7666"
    INDEX 01 04:30:17
  TRACK 181 AUDIO
    TITLE "16:cjc025_7667"
    INDEX 01 04:32:63
  TRACK 182 AUDIO
    TITLE "16:cjc025_7668"
    INDEX 01 04:34:03
  TRACK 183 AUDIO
    TITLE "16:cjc025_7669"
    INDEX 01 04:36:04
  TRACK 184 AUDIO
    TITLE "16:cjc025_7670"
    INDEX 01 04:37:11
  TRACK 185 AUDIO
    TITLE "16:cjc025_7671"
    INDEX 01 04:39:08
  TRACK 186 AUDIO
    TITLE "16:cjc025_7672"
    INDEX 01 04:40:25
  TRACK 187 AUDIO
    TITLE "16:cjc025_7673"
    INDEX 01 04:42:24
  TRACK 188 AUDIO
    TITLE "16:cjc025_7674"
    INDEX 01 04:43:12
  TRACK 189 AUDIO
    TITLE "16:cjc025_7675"
    INDEX 01 04:44:62
  TRACK 190 AUDIO
    TITLE "16:cjc025_7676"
    INDEX 01 04:46:03
  TRACK 191 AUDIO
    TITLE "16:cjc025_7677"
    INDEX 01 04:48:11
  TRACK 192 AUDIO
    TITLE "16:cjc025_7678"
    INDEX 01 04:49:09
  TRACK 193 AUDIO
    TITLE "16:cjc025_7679"
    INDEX 01 04:51:10
  TRACK 194 AUDIO
    TITLE "16:cjc025_7680"
    INDEX 01 04:51:70
  TRACK 195 AUDIO
    TITLE "16:cjc025_7681"
    INDEX 01 04:53:34
  TRACK 196 AUDIO
    TITLE "16:cjc025_7682"
    INDEX 01 04:54:33
  TRACK 197 AUDIO
    TITLE "16:cjc025_7683"
    INDEX 01 04:56:46
  TRACK 198 AUDIO
    TITLE "16:cjc025_7684"
    INDEX 01 04:57:49
  TRACK 199 AUDIO
    TITLE "16:cjc025_7685"
    INDEX 01 04:59:40
  TRACK 200 AUDIO
    TITLE "16:cjc025_7686"
    INDEX 01 05:00:28
  TRACK 201 AUDIO
    TITLE "16:cjc025_7687"
    INDEX 01 05:02:07
  TRACK 202 AUDIO
    TITLE "16:cjc025_7688"
    INDEX 01 05:03:11
  TRACK 203 AUDIO
    TITLE "16:cjc025_7689"
    INDEX 01 05:04:59
  TRACK 204 AUDIO
    TITLE "16:cjc025_7690"
    INDEX 01 05:05:57
  TRACK 205 AUDIO
    TITLE "16:cjc025_7691"
    INDEX 01 05:07:48
  TRACK 206 AUDIO
    TITLE "16:cjc025_7692"
    INDEX 01 05:08:39
  TRACK 207 AUDIO
    TITLE "16:cjc025_7693"
    INDEX 01 05:10:48
  TRACK 208 AUDIO
    TITLE "16:cjc025_7694"
    INDEX 01 05:11:53
  TRACK 209 AUDIO
    TITLE "16:cjc025_7695"
    INDEX 01 05:13:60
  TRACK 210 AUDIO
    TITLE "16:cjc025_7696"
    INDEX 01 05:14:56
  TRACK 211 AUDIO
    TITLE "16:cjc025_7697"
    INDEX 01 05:16:59
  TRACK 212 AUDIO
    TITLE "16:cjc025_7698"
    INDEX 01 05:17:68
  TRACK 213 AUDIO
    TITLE "0:"
    INDEX 01 05:20:00
